<?xml version="1.0" encoding="utf-8"?>

<svg version="1.1" xmlns="http://www.w3.org/2000/svg" xmlns:xlink="http://www.w3.org/1999/xlink" x="0px" y="0px"
	 viewBox="0 0 960 207.7" style="margin-top: 40;enable-background:new 0 0 960 207.7;" xml:space="preserve">
<style type="text/css">
	.st0{
		fill:none;stroke:/*#FF9800#18FFFF#C6FF00*/#ffffff;
		stroke-linecap="round";
		stroke-miterlimit:10;
		stroke-width:2;
  		stroke-dasharray: 800, 40;
  		stroke-dashoffset: 1000;
 	 	animation: dash 4s linear infinite; /*forwards; */
	}

	@keyframes dash {
	  from {
	    stroke-dashoffset: 1000;
	  }
	  to {
	    stroke-dashoffset: 150;
	  }
	}
	
	/*.st1{fill:#C6FF00;font-family:'Ubuntu Mono', monospace;font-size:16px;}*/
	.pulse{animation: tac 10s;}
	@keyframes tac{0%{transform: translateX(0px);}  40%{transform:scaleX(0.5);} 80%{transform:scaleX(2);} 100%{transform: translateX(960px);}}

</style>

<path class="st0" d="M515.9,49.2c-0.3,0.7-0.6,1.2-0.7,1.2c-0.1-0.1,0-0.8,0.3-1.5c0.2-0.7,0.6-1.2,0.7-1.2
	C516.3,47.8,516.2,48.5,515.9,49.2z"/>
<path class="st0" d="M6,95.7h278c70,2.4,67.6,2.3,67.6,2.3s49.6,2,60.9-6.5C438.9,75.4,442-31.2,443,21
	c1.1,57.2-1.1,153.2,18.5,102.7c3.1-9.3,7.7-22.6,7.7-22.6s4.9-13.9,9.9-13.3c4,0.9,3.3,16,3.3,16c0.2,6.1-1.4,14.5,14.6-10.5
	c1.1-1.7,0,0,0,0c2.9-4.9,11.1-21.6,11.1-21.6c-9,29-15,45.2-9.5,37c7.4-11,17.6-32.8,17.6-32.8s5.6,6.4,6.1,11.1
	s-5.1,18.8-0.8,17.6c4.2-1.2,8-13.4,10-6.5c1.7,5.7,0.7-0.9,10-2.4c14.5,0.4,0,0,26.1-0.3c2.8,0.1,7.6,0.2,7.6,0.2h43.5l337.5,1"/>
<!--<rect class="pulse" height="210" width="15" fill=" #222222" x="0" y="0"/>
<text transform="matrix(1 0 0 1 20 85)" class="st1">I am</text>
<text transform="matrix(1 0 0 1 70 85)" class="st1">Marcos</text>-->
</svg>