<?xml version="1.0" encoding="utf-8"?>
<!-- Generator: Adobe Illustrator 25.4.1, SVG Export Plug-In . SVG Version: 6.00 Build 0)  -->
<svg version="1.1" id="Layer_1" xmlns="http://www.w3.org/2000/svg" xmlns:xlink="http://www.w3.org/1999/xlink" x="0px" y="0px"
	 viewBox="0 0 841.89 862.19" style="enable-background:new 0 0 841.89 862.19;" xml:space="preserve">
<path d="M572.96,434.99c1.39-1.99,2.43-4.37,4.2-5.92c62.46-54.41,80.13-123.68,50.59-201.43c-18.48-48.63-44.55-92.32-85.64-125.7
	c-2.31-1.88-3.75-4.84-3.22-13.02c31.09,8.04,62.31,15.6,93.22,24.28c27.43,7.7,54.88,15.64,81.5,25.67
	c8.07,3.04,19.31,13.56,19.1,20.35c-3.43,112.36-46.92,204.76-139.89,271.2c-5.15,3.68-11.66,5.47-17.53,8.14
	C574.51,437.36,573.73,436.18,572.96,434.99z"/>
<path d="M325.64,331.61c-35.33-15.64-71.13-13.66-103.84,4.37c-40.51,22.34-69.15,56.17-90.59,98.36
	c-28.48,56.05-29.43,114.39-29.41,176.18C74.82,559.11,47.44,507.91,21,456.22c-18.64-36.44-18.51-37.21,11.21-65.47
	c77.32-73.51,169.31-95.05,272.32-74.29c7.73,1.56,14.08,9.95,21.07,15.16L325.64,331.61z"/>
<path d="M595.21,754.1c-32.49,17.2-65.17,34.05-97.39,51.73c-19.88,10.91-38.73,23.69-58.63,34.56
	c-27.35,14.93-38.35,11.28-58.07-12.37c-40.59-48.68-70.35-103.03-82.21-165.21c-8.69-45.59-1.2-90.77,11.77-126.38
	c2.61,24.25,0.12,57.22,10.87,85.09c10.34,26.82,30.9,52.4,53.06,71.44c57.56,49.45,126.74,65.3,201.73,57.31
	c5.78-0.62,11.69-0.08,17.54-0.08C594.34,751.49,594.78,752.8,595.21,754.1z"/>
<path d="M418.2,265.25c-45.79-47.29-101.81-59.32-161.82-47.01c-65.4,13.42-124.38,41.91-166.67,97.05
	c-3.51,4.57-7.94,8.43-16.72,11.07c10.08-34.39,20.15-68.78,30.25-103.16c7.09-24.15,15.19-48.05,21.02-72.5
	c4.1-17.19,10.77-24.9,30.51-24.92c96.49-0.11,177.45,33.22,241.11,106.52c4.41,5.08,8.91,10.16,12.67,15.71
	C412.23,253.45,415.02,259.48,418.2,265.25z"/>
<path d="M421.04,589.31c30.32,37.23,67.97,61.81,116.29,62.57c80.88,1.28,148.42-30.45,203.64-89.42
	c9.59-10.24,21.54-18.26,33.36-28.1c-10.73,32.66-21.85,65.59-32.35,98.73c-8.59,27.1-17.07,54.27-24.42,81.73
	c-5.57,20.8-18.99,30.66-38.95,26.67c-50-10-101.36-13.91-147.93-38.87C481.56,676.29,445.52,638.68,421.04,589.31z"/>
<path d="M246.09,114.59c55.37-29.92,110.88-59.52,165.95-89.92c15.34-8.47,27.67-5.19,38.65,6.06
	c57.87,59.24,95.23,128.03,95.05,212.92c-0.05,23.1-4.46,46.18-6.92,69.83c-6.55-27.29-10.83-53.37-19.17-78.08
	c-14.46-42.84-50.1-65.83-87.55-86.08c-53.6-28.97-111.31-35.34-171.01-30.44c-4.16,0.34-8.4,0.16-12.55-0.25
	C247.7,118.54,247.08,116.29,246.09,114.59z"/>
<path d="M311.15,778.99c-24.22-6.5-45.85-12.04-67.32-18.14c-31.53-8.96-63.01-18.13-94.39-27.6c-17.69-5.34-30.43-12.72-31.6-35.87
	c-4.71-93.09,30.05-168.91,96.75-231.49c12.04-11.3,26.69-19.81,44.8-33.01c-16.08,22.57-30.27,39.21-40.8,57.92
	c-26.03,46.24-16.67,95.31-3.85,142.14c13.5,49.31,40.16,92.32,81.31,124.82c4.59,3.62,8.44,8.21,12.39,12.57
	C309.43,771.43,309.46,773.38,311.15,778.99z"/>
<path d="M552.36,549.3c83.59-2.24,129.9-53.27,163.64-120.93c27.23-54.62,29.76-112.64,23.87-173.12
	c27.06,51.36,54.1,102.72,81.2,154.06c3.53,6.69,6.72,13.71,11.2,19.73c9.61,12.92,7.1,22.47-5.57,31.74
	c-24.39,17.84-47.46,37.56-72.39,54.57C692.26,557.68,623.2,560.88,552.36,549.3z"/>
<path d="M325.6,331.62c23.53,11.03,47.85,20.72,70.2,33.79c8.42,4.92,12.27,17.66,18.2,26.83c4.56-1.51,9.12-3.03,13.68-4.54
	c5.64-18.6,11.28-37.2,18.68-61.61c3.6,29.12,6.59,53.24,10.57,85.43c22.6-15.75,39.19-27.32,55.78-38.88
	c0.88,0.43,1.77,0.85,2.65,1.28c-16.4,20.68-32.8,41.36-52.12,65.72c19.1,6.07,35.21,11.19,51.33,16.31
	c0.05,1.44,0.1,2.88,0.15,4.32c-13.53,0.89-27.05,2.1-40.6,2.61c-23.53,0.88-30.21,9.99-16.89,29.5c9.48,13.87,24.86,24,38.54,34.6
	c6.9,5.34,15.87,7.99,23.91,11.86c-1.61,2.46-3.22,4.92-4.83,7.37c-25.52-18.03-50.96-36.19-76.64-54
	c-6.53-4.53-13.84-7.93-20.79-11.85c-4.04,7.98-11.16,15.83-11.5,23.96c-0.8,19.11,1.64,38.36,2.77,57.55
	c-2.1,0.33-4.21,0.66-6.31,0.98c-4.24-33.04-8.47-66.07-13.55-105.72c-19.47,10.83-36.87,20.5-58.18,32.35
	c12.9-15.36,23.71-28.21,34.48-41.09c15.07-18.02,12.5-27.31-10.36-32.51c-11.33-2.58-23.33-2.24-35.55-7.31
	c17.1-1.2,34.21-2.39,51.31-3.61c21.77-1.55,27.55-10.67,16.04-29.04c-14.12-22.53-32.3-40.95-60.9-44.29
	C325.64,331.61,325.6,331.62,325.6,331.62z"/>
</svg>
